#!OML:ASF F:\VICON\USERDATA\INSTALL\rory3\rory3.ASF
:FULLY-SPECIFIED
:DEGREES
2489
root 12.3561 17.8723 -10.6657 -908.275 -81.3929 -172.211
lowerback 10.6073 1.57785 -0.143203
upperback 1.50098 2.05278 0.680718
thorax -4.40935 0.996439 0.499073
lowerneck -17.884 -2.54638 -9.12019
upperneck 31.7161 -3.14201 4.84994
head 14.0375 -2.07913 2.92848
rclavicle -1.42442e-014 -8.59744e-015
rhumerus -34.3058 -5.95894 -81.0737
rradius 33.3894
rwrist 2.80618
rhand -18.0331 8.16893
rfingers 7.12502
rthumb 8.23842 -21.6504
lclavicle -1.42442e-014 -8.59744e-015
lhumerus -35.131 5.894 79.9069
lradius 29.7099
lwrist -7.29062
lhand -18.6077 24.6169
lfingers 7.12502
lthumb 7.68379 54.4573
rfemur -18.2366 5.8678 16.6147
rtibia 26.2765
rfoot -8.7497 14.7902
rtoes -1.18821
lfemur 3.34528 -12.9488 -27.0928
ltibia 29.7902
lfoot 11.7881 -29.2404
ltoes 39.0578
2490
root 12.2726 17.8912 -10.7002 -909.349 -82.222 -171.171
lowerback 10.5243 1.645 0.0898309
upperback 1.55887 2.16643 0.667874
thorax -4.29491 1.0487 0.341981
lowerneck -17.8391 -2.51263 -8.93429
upperneck 31.6386 -3.09759 4.72308
head 13.9831 -2.04814 2.85177
rclavicle 2.54569e-014 -3.27995e-015
rhumerus -34.2678 -6.21039 -80.9881
rradius 33.3125
rwrist 3.02348
rhand -17.9023 8.23308
rfingers 7.12502
rthumb 8.36465 -21.5813
lclavicle 2.54569e-014 -3.27995e-015
lhumerus -35.1779 6.11062 79.5775
lradius 29.3797
lwrist -7.29003
lhand -18.9991 24.9325
lfingers 7.12502
lthumb 7.306 54.7863
rfemur -17.575 5.63009 16.6565
rtibia 26.0802
rfoot -9.12644 14.5104
rtoes -1.19989
lfemur 2.73173 -12.9411 -26.7496
ltibia 31.2759
lfoot 13.5466 -29.0662
ltoes 39.3649
2491
root 12.1927 17.9009 -10.741 -910.165 -82.9997 -170.444
lowerback 10.5455 1.753 0.204949
upperback 1.61446 2.32048 0.653146
thorax -4.24456 1.12257 0.240791
lowerneck -17.7914 -2.45577 -8.66685
upperneck 31.5149 -2.98882 4.4446
head 13.8988 -1.99802 2.70985
rclavicle -3.53961e-014 2.5842e-015
rhumerus -34.2067 -6.73016 -80.7792
rradius 33.1427
rwrist 3.44705
rhand -17.5373 8.35958
rfingers 7.12502
rthumb 8.71684 -21.4404
lclavicle -3.53961e-014 2.5842e-015
lhumerus -35.2525 6.35961 79.3393
lradius 29.0772
lwrist -7.57984
lhand -22.1741 26.7875
lfingers 7.12502
lthumb 4.24062 56.7251
rfemur -16.8814 5.27584 16.6779
rtibia 25.859
rfoot -9.36663 14.2593
rtoes -0.940274
lfemur 2.11232 -12.7017 -26.4124
ltibia 32.7433
lfoot 15.7947 -28.8877
ltoes 40.5128
2492
root 12.1211 17.907 -10.7806 -912.059 -83.8587 -168.475
lowerback 10.5356 1.80774 0.359048
upperback 1.56623 2.41584 0.720183
thorax -4.28633 1.16841 0.209924
lowerneck -17.7275 -2.41396 -8.74631
upperneck 31.4986 -2.90489 4.47063
head 13.8726 -1.96478 2.74932
rclavicle 6.02566e-015 -9.24349e-015
rhumerus -34.2066 -6.8566 -80.5865
rradius 33.006
rwrist 3.5911
rhand -17.4907 8.4216
rfingers 7.12502
rthumb 8.76179 -21.3765
lclavicle 6.02566e-015 -9.24349e-015
lhumerus -35.4634 7.04253 79.0273
lradius 28.8935
lwrist -8.1224
lhand -23.126 28.0534
lfingers 7.12502
lthumb 3.32139 58.0072
rfemur -16.4169 4.52558 16.8115
rtibia 25.6297
rfoot -9.51281 14.2299
rtoes -0.646746
lfemur 1.22588 -12.3731 -25.8936
ltibia 34.1821
lfoot 18.0414 -28.8777
ltoes 41.0331
2493
root 12.0534 17.9192 -10.8195 -916.615 -84.7103 -163.801
lowerback 10.5663 1.84282 0.739509
upperback 1.48109 2.51302 0.806994
thorax -4.38002 1.21133 0.0702755
lowerneck -17.5932 -2.4178 -8.86984
upperneck 31.467 -2.91628 4.59422
head 13.8349 -1.96585 2.81936
rclavicle -2.75317e-014 -8.05078e-015
rhumerus -34.3271 -6.53935 -80.6216
rradius 33.0837
rwrist 3.17239
rhand -17.7235 8.2148
rfingers 7.12502
rthumb 8.53721 -21.5926
lclavicle -2.75317e-014 -8.05078e-015
lhumerus -35.7056 7.39805 78.6929
lradius 28.8948
lwrist -8.04926
lhand -21.2785 27.4367
lfingers 7.12502
lthumb 5.10545 57.3552
rfemur -16.0424 4.08321 17.121
rtibia 25.5007
rfoot -9.62472 13.9466
rtoes 0.653027
lfemur 0.249877 -11.8915 -25.0958
ltibia 35.5204
lfoot 20.3455 -29.0033
ltoes 40.6942
2494
root 11.9819 17.931 -10.861 -921.863 -85.5577 -158.593
lowerback 10.6915 1.8356 0.979376
upperback 1.485 2.53444 0.866703
thorax -4.43773 1.21752 -0.00936739
lowerneck -17.5934 -2.37556 -8.73964
upperneck 31.3547 -2.81716 4.42411
head 13.7726 -1.92179 2.7438
rclavicle -6.1909e-014 -9.0447e-015
rhumerus -34.3785 -5.70306 -80.8604
rradius 33.3048
rwrist 2.46289
rhand -17.8281 8.01107
rfingers 7.12502
rthumb 8.43622 -21.8004
lclavicle -6.1909e-014 -9.0447e-015
lhumerus -35.9062 7.37131 78.5088
lradius 28.9494
lwrist -7.75877
lhand -18.762 25.8637
lfingers 7.12502
lthumb 7.53487 55.7095
rfemur -15.48 3.89962 17.3457
rtibia 25.4173
rfoot -9.93808 13.4114
rtoes 1.12739
lfemur -0.541363 -11.5006 -24.4287
ltibia 36.7466
lfoot 23.1686 -28.6953
ltoes 41.1197
2495
root 11.8984 17.9346 -10.898 -924.971 -86.392 -155.59
lowerback 10.6842 1.89752 0.953654
upperback 1.56756 2.60906 0.827917
thorax -4.34632 1.25478 -0.0438743
lowerneck -17.8274 -2.38181 -8.53878
upperneck 31.418 -2.81032 4.2865
head 13.8449 -1.907 2.65636
rclavicle 1.99282e-014 6.16232e-015
rhumerus -34.3908 -5.22966 -80.9844
rradius 33.4697
rwrist 2.16476
rhand -17.766 7.94288
rfingers 7.12502
rthumb 8.49613 -21.8662
lclavicle 1.99282e-014 6.16232e-015
lhumerus -36.0349 7.2936 78.3818
lradius 28.963
lwrist -7.75131
lhand -17.9491 25.5041
lfingers 7.12502
lthumb 8.31941 55.3202
rfemur -14.8309 3.34261 17.2727
rtibia 25.3094
rfoot -10.4278 13.2166
rtoes 0.62261
lfemur -1.16307 -11.2652 -24.1701
ltibia 37.8597
lfoot 25.91 -28.0515
ltoes 41.5974
2496
root 11.8074 17.9367 -10.934 -932.201 -87.1021 -148.502
lowerback 10.6312 2.02623 1.17364
upperback 1.65989 2.79826 0.767395
thorax -4.20578 1.34527 -0.252541
lowerneck -18.0622 -2.46052 -8.48176
upperneck 31.6497 -2.96537 4.40057
head 14.0113 -1.95182 2.67061
rclavicle -1.77664e-014 -8.05078e-015
rhumerus -34.5017 -5.11844 -81.0347
rradius 33.6584
rwrist 1.98992
rhand -17.667 7.90778
rfingers 7.12502
rthumb 8.59168 -21.8974
lclavicle -1.77664e-014 -8.05078e-015
lhumerus -36.1265 6.80741 78.3107
lradius 29.0682
lwrist -7.4783
lhand -18.209 25.7685
lfingers 7.12502
lthumb 8.06866 55.5944
rfemur -14.1132 2.56024 17.3616
rtibia 25.2075
rfoot -10.8373 13.3233
rtoes 1.0955
lfemur -1.70712 -10.7569 -23.7342
ltibia 38.8976
lfoot 28.6206 -27.8094
ltoes 41.5139
2497
root 11.7222 17.9395 -10.9708 -948.592 -87.6549 -132.154
lowerback 10.5642 2.10975 1.58683
upperback 1.68657 2.95356 0.761449
thorax -4.11773 1.417 -0.508162
lowerneck -18.0977 -2.5028 -8.44513
upperneck 31.6895 -3.06287 4.4997
head 14.0456 -1.97266 2.68937
rclavicle 5.75233e-015 1.09332e-015
rhumerus -34.6454 -4.9581 -81.1243
rradius 33.8834
rwrist 1.80983
rhand -17.5622 7.86724
rfingers 7.12502
rthumb 8.69284 -21.9338
lclavicle 5.75233e-015 1.09332e-015
lhumerus -36.2083 6.17489 78.2808
lradius 29.1822
lwrist -6.90215
lhand -17.7971 25.1477
lfingers 7.12502
lthumb 8.46611 54.958
rfemur -13.5042 1.81635 17.6626
rtibia 25.0825
rfoot -11.1255 13.4127
rtoes 2.04852
lfemur -2.47876 -10.124 -23.0453
ltibia 39.9587
lfoot 31.0484 -28.0972
ltoes 40.1053
2498
root 11.6492 17.9459 -11.0014 -971.772 -87.9621 -108.763
lowerback 10.3883 2.20829 1.88722
upperback 1.64936 3.1183 0.798262
thorax -4.04198 1.49623 -0.653855
lowerneck -18.1947 -2.56498 -8.40866
upperneck 31.6432 -3.1624 4.56806
head 14.0555 -1.9934 2.69381
rclavicle -4.77083e-014 -2.98177e-015
rhumerus -34.6474 -4.65584 -81.1794
rradius 34.0645
rwrist 1.50868
rhand -17.6568 7.78547
rfingers 7.12502
rthumb 8.60158 -22.0193
lclavicle -4.77083e-014 -2.98177e-015
lhumerus -36.2181 5.46769 78.4139
lradius 29.3119
lwrist -6.51299
lhand -17.0387 24.5098
lfingers 7.12502
lthumb 9.19803 54.2892
rfemur -13.2071 1.26865 17.9011
rtibia 24.867
rfoot -11.2657 13.2891
rtoes 2.72565
lfemur -3.66703 -9.75634 -22.331
ltibia 41.0857
lfoot 33.3106 -27.91
ltoes 38.3417
2499
root 11.5854 17.9527 -11.0317 -998.362 -87.6934 -81.9256
lowerback 10.2961 2.30711 2.29644
upperback 1.59751 3.29986 0.926225
thorax -4.02517 1.58136 -0.771229
lowerneck -18.4523 -2.70674 -8.51784
upperneck 31.7154 -3.33181 4.67057
head 14.1643 -2.05786 2.72692
rclavicle -3.70236e-015 -1.21259e-014
rhumerus -34.5209 -4.48639 -81.0847
rradius 34.0779
rwrist 1.27281
rhand -17.8589 7.89046
rfingers 7.12502
rthumb 8.40649 -21.9222
lclavicle -3.70236e-015 -1.21259e-014
lhumerus -36.1081 4.27707 78.7257
lradius 29.5663
lwrist -6.14775
lhand -17.1196 25.469
lfingers 7.12502
lthumb 9.11992 55.2518
rfemur -12.9374 0.729738 18.3362
rtibia 24.5528
rfoot -11.3265 13.0211
rtoes 3.04969
lfemur -4.97342 -9.71837 -21.4151
ltibia 42.2692
lfoot 35.1431 -27.4463
ltoes 35.9516
